<?xml version="1.0" encoding="iso-8859-1"?>
<!-- Generator: Adobe Illustrator 16.0.0, SVG Export Plug-In . SVG Version: 6.00 Build 0)  -->
<!DOCTYPE svg PUBLIC "-//W3C//DTD SVG 1.1//EN" "http://www.w3.org/Graphics/SVG/1.1/DTD/svg11.dtd">
<svg version="1.1" id="&#x56FE;&#x5C42;_1" xmlns="http://www.w3.org/2000/svg" xmlns:xlink="http://www.w3.org/1999/xlink" x="0px"
	 y="0px" width="213px" height="81.751px" viewBox="0 0 213 81.751" style="enable-background:new 0 0 213 81.751;"
	 xml:space="preserve">
<g>
	<path style="fill-rule:evenodd;clip-rule:evenodd;" d="M21.686,59.21c-0.196-0.855-1.184-0.587-1.91-0.439
		c-0.365,0.072-0.749,0.732-0.859,1.196c-0.244,1-0.312,2.052-0.451,3.102c3.214,0.634,6.251,0.244,9.332-0.123
		c4.404-0.49,8.827-0.855,13.249-1.196c1.262-0.074,1.542-0.537,1.354-1.783c-0.982-7.06-1.865-14.144-2.805-21.202
		c-0.08-0.635-0.257-1.253-0.392-1.869c0.122-0.079,0.246-0.165,0.349-0.244c0.622,0.738,1.25,1.479,1.854,2.235
		c1.751,2.137,4.13,2.112,6.454,1.667c4.16-0.77,6.638-3.792,8.748-7.169c0.738-1.171,0.951-2.839,2.927-2.783
		c-0.288-0.025-0.566-0.08-0.86-0.08c-0.298,0-0.592,0.024-1.037,0.054c0.056-0.274,0.097-0.5,0.134-0.689
		c-3.142-1.814-7.228-2.26-8.557-6.553c-0.646-2.082-0.738-3.034,1.562-4.598c2.494-1.709,5.439-1.978,8.355-1.612
		c2.648,0.324,5.277,0.916,7.9,1.49c1.316,0.3,2,1.063,1.555,2.614c-0.885,3.121-2.001,5.954-5.411,7.182
		c-0.69,0.256-1.197,0.995-1.867,1.575c0.537,0.684,0.146,1.063-0.768,1.209c-1.654,0.257-2.672,1.143-3.563,2.675
		c-2.014,3.457-4.649,6.46-8.851,7.249c-1.562,0.287-3.337,0.208-4.855-0.226c-1.153-0.336-2.08-1.478-3.049-2.216
		c0.109,0.75,0.299,1.813,0.434,2.888c0.816,6.289,1.621,12.566,2.445,18.844c0.17,1.295-0.378,1.857-1.586,1.955
		c-1.732,0.146-3.464,0.292-5.32,0.439c0.348,5.227,0.696,10.354,1.044,15.559c3.91-1.662,6.893-1.124,7.056,1.147
		c-2.324,0-4.647,0.024-6.971-0.047c-0.244,0-0.635-0.685-0.659-1.077c-0.287-3.736-0.487-7.474-0.738-11.21
		c-0.098-1.368-0.256-2.759-0.409-4.372c-2.916,0.292-5.72,0.562-8.527,0.88c-0.298,0.023-0.591,0.072-0.89,0.121
		C23.192,64.12,23.217,64.12,23.174,67c-0.048,3.785-0.116,7.597-0.189,11.382c-0.006,0.392-0.079,0.783-0.128,1.124
		c-2.994,0-5.91,0-8.857,0c0.372-1.66,1.745-2.491,3.746-2.125c1.525,0.271,2.977,0.927,4.739,1.516c0-5.033,0-9.819,0-14.755
		c-1.451-0.146-3.05-0.292-4.549-0.439c0.762-8.353,1.505-16.561,2.25-24.749c0.117,0,0.239,0.012,0.348,0.023
		c-0.17,3.042-0.348,6.096-0.511,9.143c1.336,0.206,1.336,0.206,1.677-1.62c0.218,0.74,0.403,1.325,0.579,1.936
		c0.146-0.049,0.287-0.072,0.433-0.121c0.109-0.49,0.213-0.971,0.324-1.454c0.079,0,0.17,0,0.249,0
		c0.074,0.445,0.141,0.892,0.22,1.404c0.75,0,1.427,0,2.202,0c0.428,1.026-0.377,2.735,1.788,2.833
		c-0.695,0.365-1.135,0.586-1.568,0.806c0.36,0.316,0.733,0.634,1.208,1.026c-0.438,0.074-0.823,0.146-1.397,0.244
		c0,1.173-0.066,2.32,0.019,3.469c0.103,1.292-0.506,1.733-1.727,1.807C23.283,58.527,22.565,58.917,21.686,59.21z M59.68,23.689
		c-3.372-1.534-7.013-0.19-10.222-2.058c0.775,3.725,2.916,5.581,6.088,6.466c1.097,0.312,2.159,0.739,3.264,1.063
		c0.225,0.067,0.536-0.024,0.779-0.134c0.372-0.159,0.709-0.507,1.099-0.563c4.032-0.567,7.069-3.645,7.002-7.571
		c-1.292,0.806-2.422,1.502-3.641,2.271c-1.25-1.343-2.878-0.201-4.325-0.299c0.091,0.714,0.146,1.264,0.237,1.807
		c0.111,0.52,0.257,1.044,0.378,1.569c-0.566-0.324-1.116-0.659-1.732-1.031C58.912,24.776,59.144,24.464,59.68,23.689z
		 M68.013,19.787c-0.402-0.202-0.768-0.471-1.171-0.605c-4.123-1.319-8.344-1.967-12.645-1.197c-1.958,0.348-3.788,1.1-4.752,3.09
		C55.38,23.108,66.073,22.406,68.013,19.787z M21.576,49.414c-0.322-0.146-0.708-0.39-1.117-0.439
		c-0.133-0.025-0.468,0.367-0.488,0.586c-0.261,2.784-0.474,5.568-0.72,8.547c1.636-0.097,3.179-0.218,4.728-0.267
		c0.909-0.049,1.103-0.465,1.196-1.294c0.164-1.563-0.496-3.176,0.183-4.69c0.055-0.121-0.141-0.343-0.183-0.538
		c-0.05-0.219-0.111-0.463-0.08-0.683c0.098-0.538,0.232-1.05,0.409-1.832C23.997,49.024,22.826,49.219,21.576,49.414z"/>
	<path style="fill-rule:evenodd;clip-rule:evenodd;" d="M17.397,6.132c-1.275,1.319-2.604,2.583-3.812,3.969
		c-0.341,0.403-0.317,1.13-0.457,1.71c0.64,0.067,1.433,0.416,1.896,0.159c2.745-1.508,5.423-3.132,8.082-4.788
		c0.86-0.537,1.604-1.251,2.647-1.679c-0.513,0.775-1.024,1.545-1.542,2.309c0.079,0.097,0.157,0.189,0.231,0.287
		c1.903-1.282,3.801-2.559,5.696-3.834c0.124,0.122,0.25,0.244,0.385,0.36c-0.213,0.678-0.42,1.35-0.744,2.382
		c1.549-1.233,2.842-2.26,4.239-3.358c1.197,2.418,2.606,4.451,4.93,5.593c0.579,0.281,1.292,0.281,2.311,0.495
		c-0.951-1.313-1.653-2.284-2.513-3.457c1.763-0.079,2.191,1.039,2.807,1.967c0.434,0.635,0.982,1.185,1.652,1.588
		c-1.34-3.255-3.721-5.392-6.958-6.62c-3.288-1.264-6.557-0.513-9.828,0.177c-0.024-0.202-0.054-0.403-0.078-0.605
		c1.903-0.311,3.806-0.848,5.715-0.903c4.313-0.122,7.766,1.765,10.589,4.977c2.994,3.419,3.91,7.547,4.27,11.919
		c0.365,4.463-1.208,8.324-3.654,11.901c-4.166,6.095-10.102,8.745-17.306,8.5c-5.611-0.189-9.533-3.376-12.486-7.908
		C9.376,25.008,9.633,18.4,11.877,11.61c0.592-1.79,1.574-3.218,2.946-4.372c0.732-0.623,1.72-0.928,2.593-1.374
		C17.41,5.962,17.404,6.041,17.397,6.132z M23.303,8.124c-2.472,1.398-4.892,2.894-7.424,4.158c-0.939,0.47-2.146,0.391-3.489,0.592
		c-0.952,4.531-1.537,9.429,0.183,14.338c2.714,7.816,9.314,12.146,17.018,11.083c12.876-1.765,19.367-15.615,15.03-26.496
		c-0.324-0.825-2.323-2.033-3.117-1.752c-1.897,0.672-3.349-0.213-4.581-1.386c-1.214-1.155-2.19-2.54-3.349-3.915
		c-0.793,0.647-1.623,1.429-2.55,2.089c-0.487,0.348-1.129,0.458-1.702,0.671c0.055-0.591,0.098-1.184,0.135-1.788
		c0.005-0.067-0.062-0.147-0.117-0.269c-1.475,1.05-2.922,2.094-4.41,3.09C24.175,9.051,23.424,9.241,23.303,8.124z"/>
	<path style="fill-rule:evenodd;clip-rule:evenodd;" d="M13.628,52.664c2.031-4.964,3.971-9.715,5.917-14.467
		c0.104,0.03,0.201,0.056,0.305,0.086c-0.079,0.391-0.109,0.805-0.25,1.166c-1.562,3.934-3.135,7.872-4.715,11.797
		c-0.189,0.464-0.444,0.905-0.713,1.319c-0.396,0.636-0.859,0.782-1.433,0.17c-2.099-2.247-3.678-4.762-4.563-7.754
		c-0.226-0.757-1.104-1.306-1.824-2.112c-0.579,2.125-0.377,2.447,1.129,2.754c-0.25,0.892-0.659,1.777-0.738,2.693
		c-0.878,9.476-1.689,18.977-2.537,28.456c-0.128,1.442-0.33,2.88-0.5,4.323c-0.14,0-0.281-0.022-0.421-0.022
		c0.122-1.662,0.226-3.324,0.378-4.961C4.521,66.66,5.406,57.23,6.211,47.79c0.074-0.806-0.256-1.698-0.579-2.474
		c-0.433-1.037-0.385-1.868,0.359-2.747c0.397-0.47,0.757-1.087,0.83-1.68c0.415-3.145,0.726-6.32,1.409-9.526
		c0.042,0.525,0.165,1.051,0.11,1.551c-0.281,2.876-0.634,5.758-0.903,8.634c-0.042,0.446,0.208,0.952,0.403,1.399
		c0.269,0.634,0.671,1.209,0.903,1.844C9.773,47.614,11.157,50.22,13.628,52.664z"/>
	<path style="fill-rule:evenodd;clip-rule:evenodd;fill:#EEF4F8;" d="M59.68,23.689c-0.536,0.775-0.768,1.087-1.073,1.521
		c0.616,0.372,1.166,0.708,1.732,1.031c-0.122-0.525-0.268-1.05-0.378-1.569c-0.091-0.543-0.146-1.093-0.237-1.807
		c1.447,0.098,3.075-1.044,4.325,0.299c1.219-0.769,2.348-1.465,3.641-2.271c0.067,3.926-2.97,7.004-7.002,7.571
		c-0.39,0.056-0.727,0.403-1.099,0.563c-0.244,0.11-0.555,0.201-0.779,0.134c-1.105-0.324-2.167-0.75-3.264-1.063
		c-3.172-0.885-5.313-2.742-6.088-6.466C52.667,23.499,56.308,22.155,59.68,23.689z"/>
	<path style="fill-rule:evenodd;clip-rule:evenodd;fill:#93BCDB;" d="M68.013,19.787c-1.94,2.619-12.632,3.321-18.568,1.288
		c0.964-1.991,2.794-2.742,4.752-3.09c4.301-0.77,8.522-0.122,12.645,1.197C67.245,19.316,67.61,19.585,68.013,19.787z"/>
	<path style="fill-rule:evenodd;clip-rule:evenodd;fill:#92BFDB;" d="M21.576,49.414c1.25-0.195,2.421-0.39,3.929-0.609
		c-0.176,0.782-0.311,1.294-0.409,1.832c-0.031,0.22,0.03,0.464,0.08,0.683c0.042,0.195,0.237,0.417,0.183,0.538
		c-0.678,1.514-0.019,3.126-0.183,4.69c-0.093,0.829-0.287,1.245-1.196,1.294c-1.549,0.049-3.092,0.17-4.728,0.267
		c0.246-2.979,0.458-5.763,0.72-8.547c0.02-0.219,0.354-0.611,0.488-0.586C20.868,49.024,21.253,49.269,21.576,49.414z"/>
	<path style="fill-rule:evenodd;clip-rule:evenodd;fill:#F5DCC2;" d="M23.303,8.124c0.122,1.117,0.872,0.928,1.627,0.415
		c1.488-0.996,2.935-2.04,4.41-3.09c0.055,0.122,0.122,0.202,0.117,0.269c-0.037,0.604-0.08,1.197-0.135,1.788
		c0.573-0.213,1.214-0.323,1.702-0.671c0.927-0.66,1.756-1.441,2.55-2.089c1.158,1.375,2.135,2.76,3.349,3.915
		c1.232,1.173,2.683,2.058,4.581,1.386c0.794-0.281,2.793,0.928,3.117,1.752c4.337,10.881-2.154,24.731-15.03,26.496
		c-7.704,1.063-14.304-3.268-17.018-11.083c-1.72-4.909-1.135-9.807-0.183-14.338c1.342-0.202,2.55-0.122,3.489-0.592
		C18.411,11.018,20.831,9.522,23.303,8.124z M30.646,21.545c1.007-0.953,1.507-3.761,1.007-4.366
		c-0.091-0.122-0.36-0.245-0.494-0.189c-0.202,0.079-0.489,0.292-0.489,0.458C30.635,18.712,30.646,19.963,30.646,21.545z
		 M21.07,17.136c-0.067,1.356-0.141,2.717-0.22,4.208C22.393,20.69,22.637,18.187,21.07,17.136z M30.311,28.97
		c-0.915-0.873-2.165-0.696-3.378-0.537c-1.391,0.201-1.752,0.489-1.904,1.05c0.835-0.079,1.64-0.47,2.52-0.562
		C28.438,28.836,29.396,29.068,30.311,28.97z"/>
	<path style="fill-rule:evenodd;clip-rule:evenodd;" d="M30.646,21.545c0-1.582-0.011-2.833,0.024-4.098
		c0-0.165,0.288-0.378,0.489-0.458c0.133-0.056,0.403,0.067,0.494,0.189C32.153,17.784,31.653,20.593,30.646,21.545z"/>
	<path style="fill-rule:evenodd;clip-rule:evenodd;" d="M21.07,17.136c1.567,1.051,1.323,3.555-0.22,4.208
		C20.929,19.853,21.003,18.492,21.07,17.136z"/>
	<path style="fill-rule:evenodd;clip-rule:evenodd;" d="M30.311,28.97c-0.909,0.098-1.816-0.036-2.702,0.043
		c-0.884,0.092-1.745,0.391-2.581,0.47c0.152-0.562,0.513-0.849,1.904-1.05C28.146,28.274,29.396,28.097,30.311,28.97z"/>
	<path style="fill-rule:evenodd;clip-rule:evenodd;" d="M27.67,28.922"/>
	<path style="fill-rule:evenodd;clip-rule:evenodd;" d="M27.694,29.227"/>
	<path style="fill-rule:evenodd;clip-rule:evenodd;fill:#E9B09A;" d="M39.808,24.158c0.256,0.794-0.727,1.845-2.214,2.328
		c-1.482,0.481-2.903,0.225-3.16-0.581c-0.268-0.794,0.727-1.844,2.215-2.327C38.13,23.097,39.552,23.353,39.808,24.158z"/>
	<path style="fill-rule:evenodd;clip-rule:evenodd;fill:#E9B09A;" d="M22.064,27.792c-0.091,0.843-1.421,1.381-2.972,1.222
		c-1.554-0.177-2.744-0.995-2.646-1.813c0.085-0.849,1.421-1.386,2.97-1.228C20.973,26.149,22.156,26.967,22.064,27.792z"/>
</g>
<g>
	<path style="fill:#1E95D4;" d="M101.806,16.791V25.5h15.641v1.286h-15.641v8.886h17.81c0,0-0.052,0.585-0.076,0.8
		c-1.21,9.635-2.181,13.421-3.819,14.896c-0.769,0.592-1.524,0.732-2.897,0.781c-1.337,0-4.399-0.049-7.588-0.303
		c-0.05-0.365-0.176-0.895-0.403-1.311c3.377,0.365,6.705,0.416,7.726,0.416c1.147,0,1.688-0.051,2.13-0.439
		c1.375-1.174,2.407-4.752,3.428-13.556H85.813c0.712-3.409,1.551-9.376,2.042-13.548l1.337,0.139
		c-0.492,3.774-1.167,8.734-1.74,12.125h13.02v-18.88H82.479v-1.292h37.716v1.292H101.806z"/>
	<path style="fill:#DE5F0F;" d="M163.374,19.589v20.789h-3.365v-2.539h-12.755v14.4h-3.416v-14.4h-12.704v2.753h-3.251V19.589
		h15.955V11.68h3.416v7.909H163.374z M143.838,34.599V22.834h-12.704v11.765H143.838z M160.009,34.599V22.834h-12.755v11.765
		H160.009z"/>
	<path style="fill:#1E95D4;" d="M193.218,19.722v3.73h14.19v5.993h-14.19v4.008H209.4c0,0-0.151,1.859-0.315,2.698
		c-0.845,8.487-1.941,12.659-3.996,14.549c-1.789,1.676-3.691,2.111-6.755,2.238c-2.219,0.15-5.898,0.1-9.641,0
		c-0.126-1.896-1.286-4.557-2.697-6.308c4.084,0.327,8.822,0.365,10.787,0.365c1.198,0,2.043,0,2.787-0.429
		c1.07-0.712,1.776-3.031,2.407-6.913h-29.543c0.794-4.511,1.563-11.588,1.915-17.267l6.793,0.404
		c-0.276,3.377-0.629,7.196-1.021,10.662h6.126v-13.73h-15.816v-6.176h39.409v6.176H193.218z"/>
</g>
<g>
	<path style="fill:#040000;" d="M82.839,67.141h0.548l1.392,4.865c0.17,0.668,0.348,1.271,0.499,1.916h0.07
		c0.175-0.645,0.358-1.248,0.535-1.916l1.393-4.865h0.661l1.392,4.865c0.184,0.668,0.359,1.271,0.555,1.916h0.051
		c0.169-0.645,0.347-1.248,0.542-1.916l1.349-4.865h0.521l-2.122,7.26H89.55l-1.349-4.701c-0.22-0.705-0.373-1.361-0.58-2.068h-0.07
		c-0.177,0.707-0.359,1.389-0.593,2.094L85.637,74.4h-0.605L82.839,67.141z"/>
	<path style="fill:#040000;" d="M93.053,67.141h0.549l1.394,4.865c0.169,0.668,0.346,1.271,0.497,1.916h0.069
		c0.177-0.645,0.359-1.248,0.535-1.916l1.394-4.865h0.661l1.393,4.865c0.183,0.668,0.36,1.271,0.554,1.916h0.052
		c0.17-0.645,0.346-1.248,0.548-1.916l1.336-4.865h0.53l-2.118,7.26h-0.681l-1.349-4.701c-0.221-0.705-0.371-1.361-0.58-2.068
		h-0.069c-0.176,0.707-0.359,1.389-0.592,2.094L95.852,74.4h-0.604L93.053,67.141z"/>
	<path style="fill:#040000;" d="M103.269,67.141h0.554l1.387,4.865c0.178,0.668,0.353,1.271,0.504,1.916h0.063
		c0.178-0.645,0.366-1.248,0.542-1.916l1.387-4.865h0.656l1.398,4.865c0.188,0.668,0.366,1.271,0.555,1.916h0.05
		c0.178-0.645,0.354-1.248,0.542-1.916l1.349-4.865h0.53l-2.131,7.26h-0.668l-1.349-4.701c-0.227-0.705-0.378-1.361-0.579-2.068
		h-0.075c-0.177,0.707-0.353,1.389-0.593,2.094l-1.324,4.676h-0.604L103.269,67.141z"/>
	<path style="fill:#040000;" d="M114.031,73.984c0-0.404,0.277-0.617,0.556-0.617c0.29,0,0.566,0.213,0.566,0.617
		c0,0.377-0.276,0.594-0.566,0.594C114.309,74.578,114.031,74.361,114.031,73.984z"/>
	<path style="fill:#040000;" d="M116.363,67.141h0.555l1.387,4.865c0.176,0.668,0.353,1.271,0.504,1.916h0.063
		c0.176-0.645,0.364-1.248,0.542-1.916l1.387-4.865h0.668l1.387,4.865c0.188,0.668,0.364,1.271,0.553,1.916h0.052
		c0.176-0.645,0.353-1.248,0.542-1.916l1.349-4.865h0.528l-2.129,7.26h-0.668l-1.349-4.701c-0.227-0.705-0.379-1.361-0.58-2.068
		h-0.076c-0.176,0.707-0.353,1.389-0.591,2.094l-1.324,4.676h-0.604L116.363,67.141z"/>
	<path style="fill:#040000;" d="M127.038,70.783c0-2.432,1.487-3.83,3.226-3.83c1.739,0,3.228,1.398,3.228,3.83
		c0,2.408-1.488,3.795-3.228,3.795C128.525,74.578,127.038,73.191,127.038,70.783z M132.975,70.783c0-1.992-1.172-3.377-2.711-3.377
		c-1.549,0-2.709,1.385-2.709,3.377s1.16,3.34,2.709,3.34C131.803,74.123,132.975,72.775,132.975,70.783z"/>
	<path style="fill:#040000;" d="M136.263,73.67h-0.05l-0.063,0.73h-0.416V63.459h0.492v3.229l-0.038,1.447
		c0.756-0.629,1.65-1.182,2.571-1.182c1.965,0,2.911,1.461,2.911,3.717c0,2.457-1.488,3.908-3.214,3.908
		C137.764,74.578,136.933,74.223,136.263,73.67z M141.154,70.67c0-1.852-0.668-3.264-2.446-3.264c-0.743,0-1.575,0.465-2.481,1.26
		v4.473c0.832,0.719,1.688,0.984,2.269,0.984C140.032,74.123,141.154,72.686,141.154,70.67z"/>
	<path style="fill:#040000;" d="M143.775,71.803v-4.662h0.491v4.613c0,1.602,0.518,2.369,1.738,2.369
		c0.896,0,1.576-0.48,2.471-1.551v-5.432h0.492v7.26h-0.43l-0.05-1.234h-0.024c-0.73,0.832-1.5,1.412-2.495,1.412
		C144.48,74.578,143.775,73.693,143.775,71.803z"/>
	<path style="fill:#040000;" d="M151.211,75.912c0-0.629,0.429-1.311,1.097-1.789v-0.049c-0.366-0.229-0.643-0.607-0.643-1.16
		c0-0.67,0.479-1.123,0.793-1.338v-0.063c-0.453-0.389-0.919-1.107-0.919-1.99c0-1.475,1.108-2.57,2.495-2.57
		c0.416,0,0.744,0.1,0.946,0.188h2.432v0.455h-1.739c0.517,0.428,0.856,1.096,0.856,1.928c0,1.449-1.084,2.57-2.495,2.57
		c-0.416,0-0.895-0.115-1.223-0.326c-0.34,0.264-0.644,0.604-0.644,1.105c0,0.545,0.304,0.998,1.426,0.998h1.611
		c1.603,0,2.333,0.518,2.333,1.637c0,1.223-1.311,2.434-3.354,2.434C152.332,77.941,151.211,77.135,151.211,75.912z M157.021,75.561
		c0-0.857-0.604-1.186-1.753-1.186h-1.65c-0.088,0-0.479-0.027-0.882-0.125c-0.719,0.479-1.009,1.082-1.009,1.625
		c0,0.971,0.895,1.625,2.483,1.625C155.949,77.5,157.021,76.506,157.021,75.561z M156.013,69.523c0-1.299-0.896-2.117-1.979-2.117
		c-1.072,0-1.967,0.805-1.967,2.117c0,1.246,0.921,2.117,1.967,2.117C155.093,71.641,156.013,70.77,156.013,69.523z"/>
	<path style="fill:#040000;" d="M159.013,71.803v-4.662h0.504v4.613c0,1.602,0.504,2.369,1.727,2.369c0.895,0,1.575-0.48,2.47-1.551
		v-5.432h0.492v7.26h-0.429l-0.05-1.234H163.7c-0.73,0.832-1.486,1.412-2.495,1.412C159.719,74.578,159.013,73.693,159.013,71.803z"
		/>
	<path style="fill:#040000;" d="M166.536,72.611c0-1.613,1.475-2.369,4.739-2.75c0.051-1.17-0.252-2.455-1.765-2.455
		c-1.034,0-1.902,0.516-2.369,0.881l-0.239-0.391c0.452-0.328,1.462-0.943,2.646-0.943c1.701,0,2.229,1.271,2.229,2.746V74.4h-0.416
		l-0.063-0.969h-0.05c-0.744,0.615-1.651,1.146-2.621,1.146C167.507,74.578,166.536,73.984,166.536,72.611z M171.275,72.9v-2.607
		c-3.151,0.338-4.222,1.07-4.222,2.307c0,1.105,0.743,1.523,1.625,1.523C169.549,74.123,170.33,73.705,171.275,72.9z"/>
	<path style="fill:#040000;" d="M174.464,67.141h0.416l0.075,1.146h0.026c0.742-0.754,1.511-1.334,2.507-1.334
		c1.501,0,2.193,0.895,2.193,2.771V74.4h-0.492v-4.602c0-1.6-0.504-2.393-1.751-2.393c-0.895,0-1.563,0.49-2.483,1.436V74.4h-0.491
		V67.141z"/>
	<path style="fill:#040000;" d="M182.026,73.984c0-0.404,0.276-0.617,0.555-0.617c0.29,0,0.566,0.213,0.566,0.617
		c0,0.377-0.276,0.594-0.566,0.594C182.303,74.578,182.026,74.361,182.026,73.984z"/>
	<path style="fill:#040000;" d="M184.812,70.783c0-2.432,1.513-3.83,3.264-3.83c0.982,0,1.639,0.453,2.117,0.918l-0.314,0.354
		c-0.479-0.453-1.059-0.818-1.803-0.818c-1.537,0-2.747,1.385-2.747,3.377s1.084,3.34,2.747,3.34c0.794,0,1.499-0.377,2.005-0.869
		l0.29,0.365c-0.606,0.529-1.375,0.959-2.307,0.959C186.21,74.578,184.812,73.191,184.812,70.783z"/>
	<path style="fill:#040000;" d="M191.339,70.783c0-2.432,1.488-3.83,3.215-3.83c1.739,0,3.226,1.398,3.226,3.83
		c0,2.408-1.486,3.795-3.226,3.795C192.827,74.578,191.339,73.191,191.339,70.783z M197.275,70.783c0-1.992-1.171-3.377-2.722-3.377
		c-1.538,0-2.697,1.385-2.697,3.377s1.159,3.34,2.697,3.34C196.104,74.123,197.275,72.775,197.275,70.783z"/>
	<path style="fill:#040000;" d="M200.036,67.141h0.415l0.076,1.146h0.025c0.668-0.754,1.513-1.334,2.307-1.334
		c1.185,0,1.764,0.615,2.003,1.523c0.845-0.943,1.665-1.523,2.497-1.523c1.411,0,2.142,0.895,2.142,2.771V74.4h-0.479v-4.602
		c0-1.6-0.555-2.393-1.727-2.393c-0.719,0-1.425,0.49-2.281,1.436V74.4h-0.492v-4.602c0-1.6-0.528-2.393-1.701-2.393
		c-0.706,0-1.462,0.49-2.294,1.436V74.4h-0.491V67.141z"/>
</g>
</svg>
